<svg version="1.2" xmlns="http://www.w3.org/2000/svg" viewBox="0 0 980 624" width="980" height="624">
	<title>28748288_eid_al_adha_instagram_story_05</title>
	<style>
		tspan { white-space:pre } 
		.s0 { fill: #ffffff } 
	</style>
	<g id="Design-Elements">
		<path id="Moon" fill-rule="evenodd" class="s0" d="m328.4 156.5c-16.8 54.3 13.8 111.8 68.5 128.6 54.7 16.7 112.7-13.7 129.6-67.9 2-6.6 3.3-13.1 4-19.7 0.4 12-1.2 24.2-4.9 36.3-18.4 59-81.6 92.1-141.1 73.8-59.5-18.2-92.8-80.8-74.4-139.8 10.9-35.3 37.9-61.3 70.6-72.6-24.2 12.1-43.6 33.6-52.3 61.3z"/>
		<path id="Mosque" fill-rule="evenodd" class="s0" d="m981.4 543.3c1.2-9 0.7-19.9-4.2-31.1-3.8-8.6-11.4-16.7-20-23.7-8.4-6.9-17.8-12.9-25.4-17.2 0.4-1.2 0.7-2.6 0.8-4.4 0.1-1.9-0.1-4.2-1.1-6.5v-0.1c-1.1-2.3-3.3-4.6-5.7-6.4-2.3-1.7-4.6-3.2-6.4-4.1l-0.2-4.1c0.4-0.3 0.9-0.9 1.2-1.4 0.3-0.6 0.5-1.3 0.5-2.1 0-0.8-0.2-1.6-0.6-2.3-0.4-0.6-0.9-1.1-1.4-1.5l-0.2-3.5c0.4-0.2 0.7-0.6 0.9-1 0.3-0.5 0.4-1.1 0.4-1.7q0-1-0.5-1.9c-0.3-0.4-0.6-0.8-1-1.1l-0.2-3.6-1.3-27.9c0-0.4-0.3-0.6-0.6-0.6-0.4 0-0.6 0.2-0.7 0.6l-1.2 27.9-0.2 3.6c-0.4 0.3-0.8 0.7-1.1 1.1-0.3 0.6-0.5 1.2-0.5 1.9 0 0.6 0.2 1.2 0.4 1.7 0.3 0.4 0.6 0.8 0.9 1l-0.1 3.5c-0.6 0.4-1 0.9-1.4 1.5-0.4 0.7-0.6 1.5-0.6 2.3q0 1.2 0.4 2.1c0.4 0.5 0.8 1.1 1.3 1.4l-0.2 4.1c-1.8 0.9-4.2 2.4-6.4 4.1-2.4 1.8-4.7 4.1-5.7 6.4-1 2.3-1.3 4.7-1.2 6.6 0.1 1.8 0.4 3.2 0.8 4.4-7.6 4.3-16.9 10.3-25.3 17.2-0.9 0.6-1.6 1.4-2.4 2-2.7-7.2-6.4-13.8-10.9-19.8v-45.1c2.8-2.8 6.4-7.1 7.4-13.3 0-1.3 0-2.8 0.1-4.3 0-1.5 0.1-3 0.1-4.2v-0.8l-0.5-0.5c-2.7-2.7-5.4-4.1-7.9-5.2l-0.1-5.7-0.2-13.3 4.5-9.5 0.1-0.3v-0.4-6.3-0.3l-0.1-0.3c-2.1-5.6-6.3-7.4-10.4-8.4l-0.6-15c2.1-1.7 3.4-4.2 3.4-7 0-3.1-1.5-5.8-4-7.5l-0.8-18.8q0.4 0.1 0.8 0.1c6.6 0 12.6-3.8 15.4-9.8 0 0-5.1 3-12.3 2.8-7.6-0.1-14.1-7.2-14.1-14.7 0-3.9 0.6-6.9 0.6-6.9 0 0-6.6 3.3-6.6 11.6 0 6.7 4 12.7 10 15.5l-1 19.4c-3.4 1.3-5.8 4.6-5.8 8.3 0 3.4 2 6.4 4.9 7.9l-0.7 13.5c-8.8 1.1-11 6.9-11.2 12l0.4 2.9 0.3 2.5 0.1 0.2 0.1 0.3 1.3 2.8 2.4 5.4-0.1 17.1c-3.1 0.8-5.9 2.6-8.6 4.3l-1.7 1.2-0.8 0.5v0.9c0 1.6 0 3 0 4.3 0 1.5 0 2.9 0 4.8 0.8 4.6 3.3 9.2 7.6 13.9l-0.5 21.4c-8.5-4.6-17.8-8.2-28-10.7-12.9-7.8-21.9-21.5-28.7-35q-0.6-7.1-1.1-14.2c3.8-1.1 6.4-3.8 6.4-7 0-3.6-3.2-6.6-7.6-7.4-0.6-7.4-1.2-14.7-1.8-22q0.8 0.1 1.6 0.2c3.7 0 7.1-2.1 8.9-5.2-1.9 1.9-4.4 3-7.3 3-5.7 0-10.2-4.6-10.2-10.3 0-1.8 0.5-3.5 1.3-5.1-1.9 1.9-3 4.5-3 7.3 0 4.6 3.1 8.6 7.3 9.8-0.6 7.4-1.2 14.8-1.8 22.3-4.4 0.8-7.7 3.8-7.7 7.4 0 3.2 2.7 5.9 6.5 7q-0.6 7-1.1 13.9c-6.8 13.6-15.9 27.5-28.9 35.3-6.4 1.6-12.5 3.6-18.3 6.1l-1.8-86.3h7.9v-7.5h-8l-2.2-100.9h0.1l0.1-3.3h-0.2l-0.2-7.9h6.7l0.1-7.4h-6.9l-1.3-60.6v-1.9l-0.2-9.5v-1.5h-0.1l-0.7-33.3h0.4v-0.5h0.4v-0.5h0.7v-0.9h-0.7v-0.5h-0.4v-0.4h-0.4l-0.3-14.3h5.1v-2.5h1.3v-2.4h-1.3v-2.5h-5.8l0.3-32.6h6.7v-0.4h0.1v-0.2h0.2v-0.7h-0.1v-0.2h-0.2v-0.5h-6.6c0.3-2.5 0.6-7.1-1.7-9.8-3.5-4.1-10.7-6.6-15.8-10.1 0.1 0 0.2 0.1 0.3 0.1 1.6 0 2.9-1.3 2.9-2.9 0-1.6-1.2-2.8-2.7-2.9 1.3 0 2.3-1.1 2.3-2.5 0.1-1.3-1-2.4-2.3-2.4 0.9-0.1 1.6-0.8 1.6-1.7 0-0.9-0.7-1.7-1.7-1.7-0.9 0-1.6 0.8-1.6 1.7 0 0.9 0.7 1.6 1.6 1.7-1.4 0-2.5 1.1-2.5 2.4 0 1.4 1.1 2.5 2.4 2.5-1.5 0.1-2.8 1.3-2.8 2.9 0 1.4 1 2.5 2.3 2.8-5.1 3.5-12.4 6-15.9 10.1-2.4 2.7-2.2 7.3-1.9 9.8h-6.7v0.5h-0.1v0.2h-0.2v0.7h0.2v0.2h0.1v0.4h6.7l-0.3 32.6h-5.2v2.5h-1.3l-0.1 2.4h1.4l-0.1 2.5h4.9l-0.5 14.3h-0.5v0.4h-0.4v0.5h-0.7v0.9h0.7v0.5h0.4v0.5h0.4l-1.3 33.3-0.1 2-0.3 9-0.1 1.9-2.3 60.6h-6.7v7.4h6.5l-0.4 7.9h-0.1v3.3l-3.8 100.9h-7.9l-0.1 7.5h7.7l-3.5 90.8c-2.4-2.6-5.1-5.2-8.1-7.8-29.9-25.7-46.8-36.8-61-51.9 2.5-1.4 3.8-2.8 3.8-4.4 0-3.2-5.6-6.1-14.6-8.3-15-18.4-25.2-26.2-26.9-49.8 8.2-2.9 13.8-8.7 13.8-15.5 0-7.3-6.6-13.6-16-16.2q-0.4-5.3-0.8-10.7c3.8-1.8 6.3-4.8 6.3-8.2 0-3.8-3-7.1-7.4-8.9-0.3-3.8-0.6-7.7-0.8-11.5q-0.2-2-0.3-4c2.8-1.4 4.7-3.6 4.7-6.2 0-2.8-2.3-5.3-5.6-6.6-0.8-10.6-1.5-21.2-2.2-31.9-0.8-1-1.5-2.1-2.2-3.2 1.1-0.2 1.9-1 1.9-1.9 0-0.7-0.6-1.4-1.4-1.7q0.5-1.2 1-2.2c-0.6-9.6-1.3-19.1-2-28.7 9.9 1.6 20.4-1.5 28.1-9.4 1-1.1 2-2.3 2.9-3.4-9.2 7.2-21.2 8.7-31.6 4.5-4.1-1.6-8.1-4.1-11.4-7.6-11.8-12.1-12.7-31.2-2.9-44.5-1.2 0.9-2.3 1.9-3.3 3-12.8 13.2-12.8 34.7 0 48 4.8 5 10.8 8.1 17.1 9.3-0.7 9.6-1.4 19.2-2 28.8 0.3 0.6 0.7 1.4 1.1 2.2-0.9 0.3-1.5 1-1.5 1.7 0 0.9 0.8 1.7 2 1.9-0.8 1.1-1.5 2.2-2.3 3.3q-1.1 15.9-2.2 31.8c-3.3 1.3-5.6 3.8-5.6 6.6 0 2.6 1.9 4.8 4.7 6.2q-0.1 2-0.3 4c-0.2 3.8-0.5 7.7-0.8 11.5-4.4 1.8-7.4 5.1-7.4 8.9 0 3.4 2.5 6.4 6.2 8.2q-0.3 5.4-0.7 10.7c-9.4 2.6-16 8.9-16 16.2 0 6.8 5.6 12.6 13.8 15.5-1.6 23.6-11.9 31.4-26.9 49.8-9.1 2.2-14.6 5.1-14.6 8.3 0 1.6 1.3 3 3.7 4.4-14.1 15.1-31 26.2-60.9 51.9-3.9 3.3-7.3 6.7-10.2 9.9l-0.5-76.8h1.6c2.8 0 5.1-2.3 5.1-5.1 0-2.8-2.3-5.1-5.1-5.1h-1.7l-0.5-71h2.2c2.5 0 4.5-2 4.5-4.6 0-2.1-1.5-3.8-3.5-4.3v-11.8-2.3l0.1-0.6c-0.1-0.6-0.1-1.2-0.1-1.8v-4.9h2c1.2 0 2.3-1 2.3-2.3 0-1.3-1.1-2.3-2.3-2.3h-2.7c1.3-3.8 2.9-11.1-0.4-18.6-1.5-3.4-4.6-6.7-8.1-9.6-3.4-2.8-7.2-5.1-10.3-6.9 0.2-0.4 0.3-1.1 0.4-1.8 0-0.8-0.1-1.7-0.5-2.6-0.4-1-1.3-1.9-2.3-2.6-0.9-0.7-1.9-1.3-2.6-1.7l-0.1-1.6q0.3-0.3 0.5-0.6c0.1-0.2 0.2-0.6 0.2-0.9 0-0.3-0.1-0.6-0.2-0.9-0.2-0.2-0.3-0.4-0.6-0.6l-0.1-1.4c0.2-0.1 0.3-0.2 0.4-0.4 0.1-0.2 0.2-0.5 0.2-0.7 0-0.3-0.1-0.6-0.2-0.7-0.2-0.3-0.3-0.4-0.5-0.5v-1.5l-0.5-11.3c-0.1-0.1-0.1-0.2-0.3-0.2-0.1 0-0.2 0.1-0.3 0.2l-0.5 11.3v1.5c-0.2 0.1-0.4 0.2-0.5 0.5-0.1 0.1-0.2 0.4-0.2 0.7 0 0.2 0.1 0.5 0.2 0.7 0.1 0.2 0.2 0.3 0.4 0.4l-0.1 1.4c-0.2 0.2-0.4 0.4-0.6 0.6-0.1 0.3-0.2 0.6-0.2 0.9 0 0.3 0.1 0.7 0.2 0.9q0.2 0.3 0.5 0.6l-0.1 1.6c-0.7 0.4-1.7 1-2.6 1.7-1 0.7-1.9 1.6-2.3 2.6-0.4 0.9-0.5 1.8-0.5 2.6 0.1 0.7 0.2 1.4 0.4 1.8-3.2 1.8-6.9 4.1-10.3 6.9-3.5 2.9-6.6 6.2-8.1 9.6-3.3 7.5-1.7 14.8-0.4 18.6h-2.2c-1.3 0-2.4 1-2.4 2.3 0 1.3 1.1 2.3 2.4 2.3h1.8v21.4c-1.9 0.5-3.4 2.2-3.4 4.3 0 2.6 2 4.6 4.5 4.6h2.2l-0.5 71h-1.7c-2.8 0-5.1 2.3-5.1 5.1 0 2.8 2.3 5.1 5.1 5.1h1.6l-0.3 45.5c-12.8-7.9-27.4-13.9-43.5-17.9-17.2-10.4-29.2-28.7-38.3-46.6q-0.7-9.4-1.5-18.8c5.1-1.5 8.7-5.2 8.7-9.5 0-4.7-4.4-8.7-10.2-9.8q-1.2-14.6-2.4-29.2 1 0.1 2 0.1c5.1 0 9.5-2.7 11.9-6.8-2.5 2.4-5.8 3.9-9.6 3.9-7.6 0-13.7-6-13.7-13.6 0-2.5 0.7-4.8 1.8-6.8-2.5 2.5-4 5.9-4 9.7 0 6.2 4.1 11.4 9.7 13.1-0.8 9.8-1.6 19.7-2.4 29.6-5.9 1.1-10.2 5.1-10.2 9.8 0 4.3 3.6 8 8.6 9.5q-0.7 9.2-1.5 18.4c-9.1 18.1-21.1 36.6-38.4 47-16.8 4.2-32.1 10.7-45.4 19.1v-20c2.9-2.9 6.4-7.2 7.4-13.4 0.1-1.3 0.1-2.8 0.2-4.3 0-1.5 0-2.9 0.1-4.2v-0.7l-0.5-0.6c-2.7-2.6-5.4-4.1-8-5.1v-5.7l-0.2-13.4 4.4-9.4 0.2-0.3v-0.4-6.3-0.3l-0.1-0.3c-2.1-5.7-6.3-7.5-10.4-8.4l-0.6-15.1c2.1-1.6 3.4-4.2 3.4-7 0-3-1.5-5.8-4.1-7.4l-0.8-18.8q0.5 0 0.9 0c6.5 0 12.6-3.8 15.4-9.7 0 0-5.1 2.9-12.4 2.8-7.5-0.1-14.1-7.2-14.1-14.7 0-3.9 0.7-7 0.7-7 0 0-6.6 3.3-6.6 11.6 0 6.7 3.9 12.8 10 15.5l-1.1 19.4c-3.3 1.3-5.7 4.6-5.7 8.3 0 3.4 1.9 6.4 4.9 7.9l-0.7 13.5c-8.9 1.2-11 7-11.2 12l0.4 2.9 0.3 2.6v0.2l0.1 0.2 1.3 2.9 2.4 5.4v17c-3.1 0.9-5.9 2.6-8.6 4.4l-1.7 1.1-0.9 0.5 0.1 1c0 1.6 0 2.9 0 4.3-0.1 1.4-0.1 2.8 0 4.7 0.8 4.6 3.2 9.2 7.5 14l-0.6 27.8-0.4 18.7c-6.8 8.7-12.2 18.5-16 29.3q-3.8-3.6-8-7c-11.2-9.3-23.7-17.2-33.9-23 0.5-1.5 0.9-3.5 1-5.8 0.2-2.7-0.2-5.7-1.5-8.8v-0.1c-1.4-3.1-4.4-6.1-7.6-8.5-3-2.4-6.2-4.3-8.6-5.6l-0.2-5.4c0.5-0.5 1.1-1.2 1.6-1.9 0.3-0.9 0.6-1.7 0.6-2.8 0-1.1-0.3-2.2-0.8-3.1-0.5-0.7-1.1-1.5-1.9-1.9l-0.2-4.7c0.5-0.4 0.9-0.8 1.2-1.4 0.3-0.7 0.6-1.5 0.6-2.3q0-1.3-0.7-2.5c-0.4-0.6-0.9-1.1-1.4-1.5l-0.2-4.9-1.8-37.3c0-0.5-0.4-0.8-0.8-0.8-0.5 0-0.8 0.3-0.9 0.8l-1.6 37.3-0.3 4.9c-0.6 0.4-1.1 0.9-1.4 1.5q-0.7 1.2-0.7 2.5c0 0.8 0.2 1.6 0.5 2.3 0.4 0.5 0.8 1 1.3 1.4l-0.3 4.7c-0.7 0.4-1.3 1.2-1.8 1.9q-0.8 1.4-0.8 3.1c0 1.1 0.2 1.9 0.6 2.8 0.4 0.7 1 1.4 1.6 1.9l-0.2 5.4c-2.4 1.3-5.6 3.2-8.6 5.6-3.2 2.4-6.2 5.4-7.6 8.5-1.4 3.1-1.7 6.2-1.6 8.9 0.2 2.3 0.6 4.3 1.1 5.8-10.2 5.8-22.6 13.7-33.9 23-11.6 9.4-21.7 20.2-26.8 31.8-7.1 16.1-7.3 31.9-5.4 44.4h-1.7c0.3 44.8 36.8 81.1 81.8 81.1h814.7c45 0 81.5-36.3 81.9-81.1zm-597-261.7h-7.3v-8.3c0 0-0.2-0.7 0.5-1.5 0.6-0.8 0.4-1.5 0.1-2.3-1-2.9-1.6-5.3 0-6.9 2.7 2 7.5 2.8 6 6.9-0.2 0.8-0.5 1.5 0.1 2.3 0.7 0.8 0.6 1.5 0.6 1.5zm25.5 0h-16.9v-8.3c0 0 0-0.7 0.6-1.5 0.6-0.8 0.3-1.5 0.1-2.3-1.9-5.3 6.7-5.1 7.8-9.1 1.1 4 9.7 3.8 7.8 9.1-0.3 0.8-0.5 1.5 0.1 2.3 0.6 0.8 0.5 1.5 0.5 1.5zm8.7-8.3c0 0-0.1-0.7 0.5-1.5 0.7-0.8 0.4-1.5 0.1-2.3-1.5-4.1 3.4-4.9 6.2-6.9 1.5 1.5 1 3.9-0.1 6.9-0.2 0.8-0.5 1.5 0.1 2.3 0.7 0.8 0.6 1.5 0.6 1.5v8.3h-7.4zm269.1-176.6h-4.6-3.2l0.1-17.8c0.1-3.5 2.5-5.4 4.9-6.1 1.5 0.8 2.9 2.3 2.9 5.5zm5.9 0h-3.3l0.1-18.5c0.1-1.8 0.7-2.9 1.4-3.9 1.1 1 2 2.5 2 4.5zm5.9 0h-3.3l0.1-17.7c0.1-2 1-3.5 2.1-4.5 0.7 0.9 1.3 2 1.3 3.8zm10.3 0h-3.2-4.6l0.2-18.5c0-3.1 1.4-4.5 2.9-5.4 2.5 0.7 4.9 2.6 4.9 6.1z"/>
	</g>
</svg>